<mxfile host="app.diagrams.net" agent="Mozilla/5.0 (Windows NT 10.0; Win64; x64) AppleWebKit/537.36 (KHTML, like Gecko) Chrome/126.0.0.0 Safari/537.36" version="24.7.6">
  <diagram name="Page-1" id="9fScDy9yZj8Rz5dzTaMX">
    <mxGraphModel dx="1363" dy="846" grid="1" gridSize="10" guides="1" tooltips="1" connect="1" arrows="1" fold="1" page="1" pageScale="1" pageWidth="850" pageHeight="1100" math="0" shadow="0">
      <root>
        <mxCell id="0" />
        <mxCell id="1" parent="0" />
        <mxCell id="KFjojfg5iDTTyBbVgsvp-2" value="nama_depan" style="ellipse;whiteSpace=wrap;html=1;align=center;" vertex="1" parent="1">
          <mxGeometry x="40" y="140" width="100" height="40" as="geometry" />
        </mxCell>
        <mxCell id="KFjojfg5iDTTyBbVgsvp-7" value="nama_belakang" style="ellipse;whiteSpace=wrap;html=1;align=center;" vertex="1" parent="1">
          <mxGeometry x="270" y="140" width="100" height="40" as="geometry" />
        </mxCell>
        <mxCell id="KFjojfg5iDTTyBbVgsvp-9" value="nama" style="ellipse;whiteSpace=wrap;html=1;align=center;" vertex="1" parent="1">
          <mxGeometry x="150" y="190" width="100" height="40" as="geometry" />
        </mxCell>
        <mxCell id="KFjojfg5iDTTyBbVgsvp-10" value="nama_tengah" style="ellipse;whiteSpace=wrap;html=1;align=center;" vertex="1" parent="1">
          <mxGeometry x="150" y="90" width="100" height="40" as="geometry" />
        </mxCell>
        <mxCell id="KFjojfg5iDTTyBbVgsvp-12" value="" style="endArrow=none;html=1;rounded=0;entryX=0.5;entryY=0;entryDx=0;entryDy=0;exitX=0.5;exitY=1;exitDx=0;exitDy=0;" edge="1" parent="1" source="KFjojfg5iDTTyBbVgsvp-10" target="KFjojfg5iDTTyBbVgsvp-9">
          <mxGeometry relative="1" as="geometry">
            <mxPoint x="200" y="130" as="sourcePoint" />
            <mxPoint x="190" y="200" as="targetPoint" />
          </mxGeometry>
        </mxCell>
        <mxCell id="KFjojfg5iDTTyBbVgsvp-13" value="" style="endArrow=none;html=1;rounded=0;entryX=0.927;entryY=0.188;entryDx=0;entryDy=0;exitX=-0.004;exitY=0.628;exitDx=0;exitDy=0;exitPerimeter=0;entryPerimeter=0;" edge="1" parent="1" source="KFjojfg5iDTTyBbVgsvp-7" target="KFjojfg5iDTTyBbVgsvp-9">
          <mxGeometry relative="1" as="geometry">
            <mxPoint x="240" y="140" as="sourcePoint" />
            <mxPoint x="240" y="200" as="targetPoint" />
          </mxGeometry>
        </mxCell>
        <mxCell id="KFjojfg5iDTTyBbVgsvp-14" value="" style="endArrow=none;html=1;rounded=0;entryX=0.099;entryY=0.171;entryDx=0;entryDy=0;exitX=0.958;exitY=0.783;exitDx=0;exitDy=0;exitPerimeter=0;entryPerimeter=0;" edge="1" parent="1" source="KFjojfg5iDTTyBbVgsvp-2" target="KFjojfg5iDTTyBbVgsvp-9">
          <mxGeometry relative="1" as="geometry">
            <mxPoint x="140" y="175" as="sourcePoint" />
            <mxPoint x="113" y="208" as="targetPoint" />
          </mxGeometry>
        </mxCell>
        <mxCell id="KFjojfg5iDTTyBbVgsvp-15" value="nim" style="ellipse;whiteSpace=wrap;html=1;align=center;" vertex="1" parent="1">
          <mxGeometry x="60" y="240" width="100" height="40" as="geometry" />
        </mxCell>
        <mxCell id="KFjojfg5iDTTyBbVgsvp-16" value="jurusan" style="ellipse;whiteSpace=wrap;html=1;align=center;" vertex="1" parent="1">
          <mxGeometry x="20" y="300" width="100" height="40" as="geometry" />
        </mxCell>
        <mxCell id="KFjojfg5iDTTyBbVgsvp-17" value="alamat" style="ellipse;whiteSpace=wrap;html=1;align=center;" vertex="1" parent="1">
          <mxGeometry x="60" y="370" width="100" height="40" as="geometry" />
        </mxCell>
        <mxCell id="KFjojfg5iDTTyBbVgsvp-18" value="Mahasiswa" style="whiteSpace=wrap;html=1;align=center;" vertex="1" parent="1">
          <mxGeometry x="190" y="290" width="120" height="60" as="geometry" />
        </mxCell>
        <mxCell id="KFjojfg5iDTTyBbVgsvp-19" value="Mendatar" style="shape=rhombus;perimeter=rhombusPerimeter;whiteSpace=wrap;html=1;align=center;" vertex="1" parent="1">
          <mxGeometry x="440" y="290" width="120" height="60" as="geometry" />
        </mxCell>
        <mxCell id="KFjojfg5iDTTyBbVgsvp-20" value="jurusan" style="ellipse;whiteSpace=wrap;html=1;align=center;" vertex="1" parent="1">
          <mxGeometry x="400" y="140" width="100" height="40" as="geometry" />
        </mxCell>
        <mxCell id="KFjojfg5iDTTyBbVgsvp-21" value="nim" style="ellipse;whiteSpace=wrap;html=1;align=center;" vertex="1" parent="1">
          <mxGeometry x="520" y="140" width="100" height="40" as="geometry" />
        </mxCell>
        <mxCell id="KFjojfg5iDTTyBbVgsvp-22" value="alamat" style="ellipse;whiteSpace=wrap;html=1;align=center;" vertex="1" parent="1">
          <mxGeometry x="325" y="240" width="100" height="40" as="geometry" />
        </mxCell>
        <mxCell id="KFjojfg5iDTTyBbVgsvp-23" value="nama" style="ellipse;whiteSpace=wrap;html=1;align=center;" vertex="1" parent="1">
          <mxGeometry x="570" y="240" width="100" height="40" as="geometry" />
        </mxCell>
        <mxCell id="KFjojfg5iDTTyBbVgsvp-25" value="nomor_anggota" style="ellipse;whiteSpace=wrap;html=1;align=center;" vertex="1" parent="1">
          <mxGeometry x="730" y="210" width="100" height="40" as="geometry" />
        </mxCell>
        <mxCell id="KFjojfg5iDTTyBbVgsvp-26" value="nama" style="ellipse;whiteSpace=wrap;html=1;align=center;" vertex="1" parent="1">
          <mxGeometry x="760" y="130" width="100" height="40" as="geometry" />
        </mxCell>
        <mxCell id="KFjojfg5iDTTyBbVgsvp-27" value="jurusan" style="ellipse;whiteSpace=wrap;html=1;align=center;" vertex="1" parent="1">
          <mxGeometry x="880" y="130" width="100" height="40" as="geometry" />
        </mxCell>
        <mxCell id="KFjojfg5iDTTyBbVgsvp-28" value="masa_berlaku" style="ellipse;whiteSpace=wrap;html=1;align=center;" vertex="1" parent="1">
          <mxGeometry x="920" y="210" width="100" height="40" as="geometry" />
        </mxCell>
        <mxCell id="KFjojfg5iDTTyBbVgsvp-30" value="" style="endArrow=none;html=1;rounded=0;entryX=0;entryY=0.25;entryDx=0;entryDy=0;exitX=1;exitY=0.5;exitDx=0;exitDy=0;" edge="1" parent="1" source="KFjojfg5iDTTyBbVgsvp-15" target="KFjojfg5iDTTyBbVgsvp-18">
          <mxGeometry relative="1" as="geometry">
            <mxPoint x="160" y="260" as="sourcePoint" />
            <mxPoint x="320" y="260" as="targetPoint" />
          </mxGeometry>
        </mxCell>
        <mxCell id="KFjojfg5iDTTyBbVgsvp-31" value="" style="endArrow=none;html=1;rounded=0;entryX=0;entryY=0.5;entryDx=0;entryDy=0;exitX=1;exitY=0.5;exitDx=0;exitDy=0;" edge="1" parent="1" source="KFjojfg5iDTTyBbVgsvp-16" target="KFjojfg5iDTTyBbVgsvp-18">
          <mxGeometry relative="1" as="geometry">
            <mxPoint x="120" y="320" as="sourcePoint" />
            <mxPoint x="210" y="320" as="targetPoint" />
          </mxGeometry>
        </mxCell>
        <mxCell id="KFjojfg5iDTTyBbVgsvp-32" value="" style="endArrow=none;html=1;rounded=0;entryX=0;entryY=0.75;entryDx=0;entryDy=0;exitX=0.95;exitY=0.275;exitDx=0;exitDy=0;exitPerimeter=0;" edge="1" parent="1" source="KFjojfg5iDTTyBbVgsvp-17" target="KFjojfg5iDTTyBbVgsvp-18">
          <mxGeometry relative="1" as="geometry">
            <mxPoint x="155" y="380" as="sourcePoint" />
            <mxPoint x="245" y="370" as="targetPoint" />
          </mxGeometry>
        </mxCell>
        <mxCell id="KFjojfg5iDTTyBbVgsvp-33" value="" style="endArrow=none;html=1;rounded=0;entryX=0.33;entryY=1.025;entryDx=0;entryDy=0;entryPerimeter=0;exitX=0.5;exitY=0;exitDx=0;exitDy=0;" edge="1" parent="1" source="KFjojfg5iDTTyBbVgsvp-19" target="KFjojfg5iDTTyBbVgsvp-20">
          <mxGeometry relative="1" as="geometry">
            <mxPoint x="490" y="290" as="sourcePoint" />
            <mxPoint x="550" y="240" as="targetPoint" />
          </mxGeometry>
        </mxCell>
        <mxCell id="KFjojfg5iDTTyBbVgsvp-34" value="" style="endArrow=none;html=1;rounded=0;entryX=0.5;entryY=1;entryDx=0;entryDy=0;exitX=0.5;exitY=0;exitDx=0;exitDy=0;" edge="1" parent="1" source="KFjojfg5iDTTyBbVgsvp-19" target="KFjojfg5iDTTyBbVgsvp-21">
          <mxGeometry relative="1" as="geometry">
            <mxPoint x="540" y="240" as="sourcePoint" />
            <mxPoint x="573" y="181" as="targetPoint" />
          </mxGeometry>
        </mxCell>
        <mxCell id="KFjojfg5iDTTyBbVgsvp-35" value="" style="endArrow=none;html=1;rounded=0;entryX=0.317;entryY=1.071;entryDx=0;entryDy=0;exitX=0.5;exitY=0;exitDx=0;exitDy=0;entryPerimeter=0;" edge="1" parent="1" source="KFjojfg5iDTTyBbVgsvp-19" target="KFjojfg5iDTTyBbVgsvp-23">
          <mxGeometry relative="1" as="geometry">
            <mxPoint x="541" y="316" as="sourcePoint" />
            <mxPoint x="599" y="200" as="targetPoint" />
          </mxGeometry>
        </mxCell>
        <mxCell id="KFjojfg5iDTTyBbVgsvp-36" value="" style="endArrow=none;html=1;rounded=0;entryX=0.75;entryY=1;entryDx=0;entryDy=0;exitX=0.5;exitY=0;exitDx=0;exitDy=0;entryPerimeter=0;" edge="1" parent="1" source="KFjojfg5iDTTyBbVgsvp-19" target="KFjojfg5iDTTyBbVgsvp-22">
          <mxGeometry relative="1" as="geometry">
            <mxPoint x="345.5" y="315" as="sourcePoint" />
            <mxPoint x="404.5" y="280" as="targetPoint" />
          </mxGeometry>
        </mxCell>
        <mxCell id="KFjojfg5iDTTyBbVgsvp-37" value="" style="endArrow=none;html=1;rounded=0;entryX=0;entryY=0.5;entryDx=0;entryDy=0;exitX=1;exitY=0.5;exitDx=0;exitDy=0;" edge="1" parent="1" source="KFjojfg5iDTTyBbVgsvp-18" target="KFjojfg5iDTTyBbVgsvp-19">
          <mxGeometry relative="1" as="geometry">
            <mxPoint x="310" y="319.5" as="sourcePoint" />
            <mxPoint x="380" y="319.5" as="targetPoint" />
          </mxGeometry>
        </mxCell>
        <mxCell id="KFjojfg5iDTTyBbVgsvp-76" value="Many" style="edgeLabel;html=1;align=center;verticalAlign=middle;resizable=0;points=[];" vertex="1" connectable="0" parent="KFjojfg5iDTTyBbVgsvp-37">
          <mxGeometry x="0.0308" y="-4" relative="1" as="geometry">
            <mxPoint as="offset" />
          </mxGeometry>
        </mxCell>
        <mxCell id="KFjojfg5iDTTyBbVgsvp-38" value="" style="endArrow=none;html=1;rounded=0;entryX=0;entryY=0.5;entryDx=0;entryDy=0;exitX=1;exitY=0.5;exitDx=0;exitDy=0;" edge="1" parent="1" source="KFjojfg5iDTTyBbVgsvp-19" target="KFjojfg5iDTTyBbVgsvp-39">
          <mxGeometry relative="1" as="geometry">
            <mxPoint x="560" y="319.5" as="sourcePoint" />
            <mxPoint x="830" y="317.5" as="targetPoint" />
          </mxGeometry>
        </mxCell>
        <mxCell id="KFjojfg5iDTTyBbVgsvp-77" value="Many" style="edgeLabel;html=1;align=center;verticalAlign=middle;resizable=0;points=[];" vertex="1" connectable="0" parent="KFjojfg5iDTTyBbVgsvp-38">
          <mxGeometry x="0.1857" y="-4" relative="1" as="geometry">
            <mxPoint as="offset" />
          </mxGeometry>
        </mxCell>
        <mxCell id="KFjojfg5iDTTyBbVgsvp-39" value="Anggota&lt;div&gt;Perpustakaan&lt;/div&gt;" style="whiteSpace=wrap;html=1;align=center;" vertex="1" parent="1">
          <mxGeometry x="820" y="290" width="120" height="60" as="geometry" />
        </mxCell>
        <mxCell id="KFjojfg5iDTTyBbVgsvp-40" value="" style="endArrow=none;html=1;rounded=0;entryX=0;entryY=1;entryDx=0;entryDy=0;exitX=0.5;exitY=0;exitDx=0;exitDy=0;" edge="1" parent="1" source="KFjojfg5iDTTyBbVgsvp-39" target="KFjojfg5iDTTyBbVgsvp-28">
          <mxGeometry relative="1" as="geometry">
            <mxPoint x="900" y="290" as="sourcePoint" />
            <mxPoint x="970" y="180" as="targetPoint" />
          </mxGeometry>
        </mxCell>
        <mxCell id="KFjojfg5iDTTyBbVgsvp-41" value="" style="endArrow=none;html=1;rounded=0;entryX=1;entryY=1;entryDx=0;entryDy=0;exitX=0.5;exitY=0;exitDx=0;exitDy=0;" edge="1" parent="1" source="KFjojfg5iDTTyBbVgsvp-39" target="KFjojfg5iDTTyBbVgsvp-25">
          <mxGeometry relative="1" as="geometry">
            <mxPoint x="790" y="290" as="sourcePoint" />
            <mxPoint x="815" y="243" as="targetPoint" />
          </mxGeometry>
        </mxCell>
        <mxCell id="KFjojfg5iDTTyBbVgsvp-42" value="" style="endArrow=none;html=1;rounded=0;entryX=0.624;entryY=0.986;entryDx=0;entryDy=0;exitX=0.5;exitY=0;exitDx=0;exitDy=0;entryPerimeter=0;" edge="1" parent="1" source="KFjojfg5iDTTyBbVgsvp-39" target="KFjojfg5iDTTyBbVgsvp-26">
          <mxGeometry relative="1" as="geometry">
            <mxPoint x="870" y="215" as="sourcePoint" />
            <mxPoint x="822" y="170" as="targetPoint" />
          </mxGeometry>
        </mxCell>
        <mxCell id="KFjojfg5iDTTyBbVgsvp-43" value="" style="endArrow=none;html=1;rounded=0;entryX=0.433;entryY=1.029;entryDx=0;entryDy=0;exitX=0.5;exitY=0;exitDx=0;exitDy=0;entryPerimeter=0;" edge="1" parent="1" source="KFjojfg5iDTTyBbVgsvp-39" target="KFjojfg5iDTTyBbVgsvp-27">
          <mxGeometry relative="1" as="geometry">
            <mxPoint x="970" y="290" as="sourcePoint" />
            <mxPoint x="912" y="169" as="targetPoint" />
          </mxGeometry>
        </mxCell>
        <mxCell id="KFjojfg5iDTTyBbVgsvp-44" value="kode_peminjaman" style="ellipse;whiteSpace=wrap;html=1;align=center;" vertex="1" parent="1">
          <mxGeometry x="690" y="380" width="100" height="40" as="geometry" />
        </mxCell>
        <mxCell id="KFjojfg5iDTTyBbVgsvp-45" value="tanggal_kembali" style="ellipse;whiteSpace=wrap;html=1;align=center;" vertex="1" parent="1">
          <mxGeometry x="630" y="460" width="100" height="40" as="geometry" />
        </mxCell>
        <mxCell id="KFjojfg5iDTTyBbVgsvp-46" value="tanggal_pinjam" style="ellipse;whiteSpace=wrap;html=1;align=center;" vertex="1" parent="1">
          <mxGeometry x="700" y="520" width="100" height="40" as="geometry" />
        </mxCell>
        <mxCell id="KFjojfg5iDTTyBbVgsvp-47" value="Meminjam" style="shape=rhombus;perimeter=rhombusPerimeter;whiteSpace=wrap;html=1;align=center;" vertex="1" parent="1">
          <mxGeometry x="820" y="450" width="120" height="60" as="geometry" />
        </mxCell>
        <mxCell id="KFjojfg5iDTTyBbVgsvp-48" value="nomor_anggota" style="ellipse;whiteSpace=wrap;html=1;align=center;" vertex="1" parent="1">
          <mxGeometry x="970" y="380" width="100" height="40" as="geometry" />
        </mxCell>
        <mxCell id="KFjojfg5iDTTyBbVgsvp-49" value="nomor_buku" style="ellipse;whiteSpace=wrap;html=1;align=center;" vertex="1" parent="1">
          <mxGeometry x="1030" y="460" width="100" height="40" as="geometry" />
        </mxCell>
        <mxCell id="KFjojfg5iDTTyBbVgsvp-50" value="judul_buku" style="ellipse;whiteSpace=wrap;html=1;align=center;" vertex="1" parent="1">
          <mxGeometry x="980" y="530" width="100" height="40" as="geometry" />
        </mxCell>
        <mxCell id="KFjojfg5iDTTyBbVgsvp-51" value="denda" style="ellipse;whiteSpace=wrap;html=1;align=center;" vertex="1" parent="1">
          <mxGeometry x="980" y="610" width="100" height="40" as="geometry" />
        </mxCell>
        <mxCell id="KFjojfg5iDTTyBbVgsvp-53" value="Buku" style="whiteSpace=wrap;html=1;align=center;" vertex="1" parent="1">
          <mxGeometry x="820" y="720" width="120" height="60" as="geometry" />
        </mxCell>
        <mxCell id="KFjojfg5iDTTyBbVgsvp-54" value="nomor_buku" style="ellipse;whiteSpace=wrap;html=1;align=center;" vertex="1" parent="1">
          <mxGeometry x="660" y="840" width="100" height="40" as="geometry" />
        </mxCell>
        <mxCell id="KFjojfg5iDTTyBbVgsvp-55" value="tahun_terbit" style="ellipse;whiteSpace=wrap;html=1;align=center;" vertex="1" parent="1">
          <mxGeometry x="780" y="870" width="100" height="40" as="geometry" />
        </mxCell>
        <mxCell id="KFjojfg5iDTTyBbVgsvp-56" value="penerbit" style="ellipse;whiteSpace=wrap;html=1;align=center;" vertex="1" parent="1">
          <mxGeometry x="900" y="870" width="100" height="40" as="geometry" />
        </mxCell>
        <mxCell id="KFjojfg5iDTTyBbVgsvp-57" value="jenis_buku" style="ellipse;whiteSpace=wrap;html=1;align=center;" vertex="1" parent="1">
          <mxGeometry x="1010" y="840" width="100" height="40" as="geometry" />
        </mxCell>
        <mxCell id="KFjojfg5iDTTyBbVgsvp-58" value="pengarang" style="ellipse;whiteSpace=wrap;html=1;align=center;" vertex="1" parent="1">
          <mxGeometry x="1050" y="780" width="100" height="40" as="geometry" />
        </mxCell>
        <mxCell id="KFjojfg5iDTTyBbVgsvp-59" value="judul_buku" style="ellipse;whiteSpace=wrap;html=1;align=center;" vertex="1" parent="1">
          <mxGeometry x="620" y="780" width="100" height="40" as="geometry" />
        </mxCell>
        <mxCell id="KFjojfg5iDTTyBbVgsvp-61" value="" style="endArrow=none;html=1;rounded=0;entryX=0.5;entryY=0;entryDx=0;entryDy=0;exitX=0.5;exitY=1;exitDx=0;exitDy=0;" edge="1" parent="1" source="KFjojfg5iDTTyBbVgsvp-39" target="KFjojfg5iDTTyBbVgsvp-47">
          <mxGeometry relative="1" as="geometry">
            <mxPoint x="870" y="350" as="sourcePoint" />
            <mxPoint x="1030" y="350" as="targetPoint" />
          </mxGeometry>
        </mxCell>
        <mxCell id="KFjojfg5iDTTyBbVgsvp-78" value="1" style="edgeLabel;html=1;align=center;verticalAlign=middle;resizable=0;points=[];" vertex="1" connectable="0" parent="KFjojfg5iDTTyBbVgsvp-61">
          <mxGeometry x="0.1086" relative="1" as="geometry">
            <mxPoint as="offset" />
          </mxGeometry>
        </mxCell>
        <mxCell id="KFjojfg5iDTTyBbVgsvp-62" value="" style="endArrow=none;html=1;rounded=0;entryX=1;entryY=0.5;entryDx=0;entryDy=0;exitX=0.106;exitY=0.766;exitDx=0;exitDy=0;exitPerimeter=0;" edge="1" parent="1" source="KFjojfg5iDTTyBbVgsvp-48" target="KFjojfg5iDTTyBbVgsvp-47">
          <mxGeometry relative="1" as="geometry">
            <mxPoint x="980" y="410" as="sourcePoint" />
            <mxPoint x="980" y="510" as="targetPoint" />
          </mxGeometry>
        </mxCell>
        <mxCell id="KFjojfg5iDTTyBbVgsvp-63" value="" style="endArrow=none;html=1;rounded=0;entryX=1;entryY=0.5;entryDx=0;entryDy=0;exitX=0;exitY=0.5;exitDx=0;exitDy=0;" edge="1" parent="1" source="KFjojfg5iDTTyBbVgsvp-49" target="KFjojfg5iDTTyBbVgsvp-47">
          <mxGeometry relative="1" as="geometry">
            <mxPoint x="1030" y="481" as="sourcePoint" />
            <mxPoint x="989" y="550" as="targetPoint" />
          </mxGeometry>
        </mxCell>
        <mxCell id="KFjojfg5iDTTyBbVgsvp-64" value="" style="endArrow=none;html=1;rounded=0;entryX=1;entryY=0.5;entryDx=0;entryDy=0;exitX=0;exitY=0.5;exitDx=0;exitDy=0;" edge="1" parent="1" source="KFjojfg5iDTTyBbVgsvp-50" target="KFjojfg5iDTTyBbVgsvp-47">
          <mxGeometry relative="1" as="geometry">
            <mxPoint x="1030" y="479.66" as="sourcePoint" />
            <mxPoint x="940" y="479.66" as="targetPoint" />
          </mxGeometry>
        </mxCell>
        <mxCell id="KFjojfg5iDTTyBbVgsvp-65" value="" style="endArrow=none;html=1;rounded=0;entryX=0;entryY=0.5;entryDx=0;entryDy=0;exitX=0.923;exitY=0.834;exitDx=0;exitDy=0;exitPerimeter=0;" edge="1" parent="1" source="KFjojfg5iDTTyBbVgsvp-44" target="KFjojfg5iDTTyBbVgsvp-47">
          <mxGeometry relative="1" as="geometry">
            <mxPoint x="771" y="410" as="sourcePoint" />
            <mxPoint x="730" y="479" as="targetPoint" />
          </mxGeometry>
        </mxCell>
        <mxCell id="KFjojfg5iDTTyBbVgsvp-66" value="" style="endArrow=none;html=1;rounded=0;entryX=0;entryY=0.5;entryDx=0;entryDy=0;exitX=1;exitY=0.5;exitDx=0;exitDy=0;" edge="1" parent="1" source="KFjojfg5iDTTyBbVgsvp-45" target="KFjojfg5iDTTyBbVgsvp-47">
          <mxGeometry relative="1" as="geometry">
            <mxPoint x="730" y="470" as="sourcePoint" />
            <mxPoint x="768" y="537" as="targetPoint" />
          </mxGeometry>
        </mxCell>
        <mxCell id="KFjojfg5iDTTyBbVgsvp-67" value="" style="endArrow=none;html=1;rounded=0;entryX=0;entryY=0.5;entryDx=0;entryDy=0;exitX=1;exitY=0.5;exitDx=0;exitDy=0;" edge="1" parent="1" source="KFjojfg5iDTTyBbVgsvp-46" target="KFjojfg5iDTTyBbVgsvp-47">
          <mxGeometry relative="1" as="geometry">
            <mxPoint x="740" y="539.66" as="sourcePoint" />
            <mxPoint x="830" y="539.66" as="targetPoint" />
          </mxGeometry>
        </mxCell>
        <mxCell id="KFjojfg5iDTTyBbVgsvp-68" value="" style="endArrow=none;html=1;rounded=0;entryX=1;entryY=0.5;entryDx=0;entryDy=0;exitX=0;exitY=0.5;exitDx=0;exitDy=0;" edge="1" parent="1" source="KFjojfg5iDTTyBbVgsvp-51" target="KFjojfg5iDTTyBbVgsvp-47">
          <mxGeometry relative="1" as="geometry">
            <mxPoint x="980" y="630" as="sourcePoint" />
            <mxPoint x="940" y="560" as="targetPoint" />
          </mxGeometry>
        </mxCell>
        <mxCell id="KFjojfg5iDTTyBbVgsvp-69" value="" style="endArrow=none;html=1;rounded=0;entryX=0.5;entryY=0;entryDx=0;entryDy=0;exitX=0.5;exitY=1;exitDx=0;exitDy=0;" edge="1" parent="1" source="KFjojfg5iDTTyBbVgsvp-47" target="KFjojfg5iDTTyBbVgsvp-53">
          <mxGeometry relative="1" as="geometry">
            <mxPoint x="878.82" y="510" as="sourcePoint" />
            <mxPoint x="878.82" y="610" as="targetPoint" />
          </mxGeometry>
        </mxCell>
        <mxCell id="KFjojfg5iDTTyBbVgsvp-79" value="Many" style="edgeLabel;html=1;align=center;verticalAlign=middle;resizable=0;points=[];" vertex="1" connectable="0" parent="KFjojfg5iDTTyBbVgsvp-69">
          <mxGeometry x="-0.0367" y="-4" relative="1" as="geometry">
            <mxPoint as="offset" />
          </mxGeometry>
        </mxCell>
        <mxCell id="KFjojfg5iDTTyBbVgsvp-70" value="" style="endArrow=none;html=1;rounded=0;entryX=0.5;entryY=1;entryDx=0;entryDy=0;exitX=1;exitY=0.5;exitDx=0;exitDy=0;" edge="1" parent="1" source="KFjojfg5iDTTyBbVgsvp-59" target="KFjojfg5iDTTyBbVgsvp-53">
          <mxGeometry relative="1" as="geometry">
            <mxPoint x="720" y="800" as="sourcePoint" />
            <mxPoint x="880" y="800" as="targetPoint" />
          </mxGeometry>
        </mxCell>
        <mxCell id="KFjojfg5iDTTyBbVgsvp-71" value="" style="endArrow=none;html=1;rounded=0;entryX=0.5;entryY=1;entryDx=0;entryDy=0;exitX=1;exitY=0.5;exitDx=0;exitDy=0;" edge="1" parent="1" source="KFjojfg5iDTTyBbVgsvp-54" target="KFjojfg5iDTTyBbVgsvp-53">
          <mxGeometry relative="1" as="geometry">
            <mxPoint x="760" y="860" as="sourcePoint" />
            <mxPoint x="920" y="840" as="targetPoint" />
          </mxGeometry>
        </mxCell>
        <mxCell id="KFjojfg5iDTTyBbVgsvp-72" value="" style="endArrow=none;html=1;rounded=0;entryX=0.5;entryY=1;entryDx=0;entryDy=0;exitX=0.5;exitY=0;exitDx=0;exitDy=0;" edge="1" parent="1" source="KFjojfg5iDTTyBbVgsvp-55" target="KFjojfg5iDTTyBbVgsvp-53">
          <mxGeometry relative="1" as="geometry">
            <mxPoint x="830" y="870" as="sourcePoint" />
            <mxPoint x="950" y="790" as="targetPoint" />
          </mxGeometry>
        </mxCell>
        <mxCell id="KFjojfg5iDTTyBbVgsvp-73" value="" style="endArrow=none;html=1;rounded=0;entryX=0.5;entryY=1;entryDx=0;entryDy=0;exitX=0.5;exitY=0;exitDx=0;exitDy=0;" edge="1" parent="1" source="KFjojfg5iDTTyBbVgsvp-56" target="KFjojfg5iDTTyBbVgsvp-53">
          <mxGeometry relative="1" as="geometry">
            <mxPoint x="950" y="870" as="sourcePoint" />
            <mxPoint x="1000" y="780" as="targetPoint" />
          </mxGeometry>
        </mxCell>
        <mxCell id="KFjojfg5iDTTyBbVgsvp-74" value="" style="endArrow=none;html=1;rounded=0;entryX=0.5;entryY=1;entryDx=0;entryDy=0;exitX=0;exitY=0.5;exitDx=0;exitDy=0;" edge="1" parent="1" source="KFjojfg5iDTTyBbVgsvp-57" target="KFjojfg5iDTTyBbVgsvp-53">
          <mxGeometry relative="1" as="geometry">
            <mxPoint x="1010" y="860" as="sourcePoint" />
            <mxPoint x="940" y="770" as="targetPoint" />
          </mxGeometry>
        </mxCell>
        <mxCell id="KFjojfg5iDTTyBbVgsvp-75" value="" style="endArrow=none;html=1;rounded=0;entryX=0.5;entryY=1;entryDx=0;entryDy=0;exitX=0;exitY=0.5;exitDx=0;exitDy=0;" edge="1" parent="1" source="KFjojfg5iDTTyBbVgsvp-58" target="KFjojfg5iDTTyBbVgsvp-53">
          <mxGeometry relative="1" as="geometry">
            <mxPoint x="1050" y="800" as="sourcePoint" />
            <mxPoint x="920" y="720" as="targetPoint" />
          </mxGeometry>
        </mxCell>
      </root>
    </mxGraphModel>
  </diagram>
</mxfile>
